<svg viewBox="0 0 24 24" xmlns="http://www.w3.org/2000/svg" fill="none">
  <!-- Rocket body -->
  <path d="M12 2C12 2 8 6 8 12C8 15 9 18 12 22C15 18 16 15 16 12C16 6 12 2 12 2Z" fill="white"/>

  <!-- Rocket window -->
  <circle cx="12" cy="10" r="2" fill="#1a1a24"/>

  <!-- Left fin -->
  <path d="M8 14L5 18L8 17V14Z" fill="white"/>

  <!-- Right fin -->
  <path d="M16 14L19 18L16 17V14Z" fill="white"/>

  <!-- Flame -->
  <path d="M10 20C10 20 11 22 12 23C13 22 14 20 14 20C13 21 12 21.5 12 21.5C12 21.5 11 21 10 20Z" fill="#ff6b4a" opacity="0.9"/>
</svg>
